# xmcd
#
# Track frame offsets: 
#        150
#        17868
#        29167
#        43591
#        64751
#        85987
#        96054
#        116480
#        134759
#        149784
#        165999
#        179963
#        194880
#        213928
#        232395
#        248922
#        266581
#        284097
#        298336
#        316486
#
# Disc length: 4399 seconds
#
# Revision: 0
# Processed by: cddbd v1.5.2PL0 Copyright (c) Steve Scherf et al.
# Submitted via: ExactAudioCopyFreeDBPlugin 1.0
#
DISCID=57112d14
DTITLE=100 Tubes Italia - Les tubes incontournables - CD1
DYEAR=2010
DGENRE=Folk
TTITLE0=Toto Cutugno - Toto Cutugno - L'Italiano
TTITLE1=Domenico Modugno  - Domenico Modugno - Volare
TTITLE2=Al Bano and Romina Power - Al Bano and Romina Power- Felicita
TTITLE3=Marcp Masini - Marcp Masini - Perchè lo fai
TTITLE4=Drupi  - Drupi - Vado via
TTITLE5=Adriano Celentano - Adriano Celentano - 24.000 baci
TTITLE6=Marco Silenzi and Melody - Marco Silenzi and Melody - Vivo per lei
TTITLE7=Paloma Palma - Paloma Palma - Una storia impotante
TTITLE8=Daniele Groff - Daniele Groff- Pensa a te
TTITLE9=Povia - Povia - I bambini fanno ''Ooh''
TTITLE10=Paolo Mengoli - Paolo Mengoli - Parole
TTITLE11=Meccano - Meccano - Una stella se vuoi
TTITLE12=Vasco Rossi - Vasco Rossi - Canzone
TTITLE13=Sandro Giacobbe - Sandro Giacobbe - Il giardino proibito
TTITLE14=Christian - Christian - Amore
TTITLE15=Nicola Di Bari - Nicola Di Bari - La pui bella del mondo 
TTITLE16=Ivan Graziani - Ivan Graziani - Maledette maledingue
TTITLE17=Pino d'Angio - Pino d'Angio - Ma quale idea
TTITLE18=Toto Cucugno - Toto Cucugno - Voglio l'anima
TTITLE19=Ricchi and Poveri - Ricchi and Poveri - Sara perchè ti amo
EXTD=
EXTT0=
EXTT1=
EXTT2=
EXTT3=
EXTT4=
EXTT5=
EXTT6=
EXTT7=
EXTT8=
EXTT9=
EXTT10=
EXTT11=
EXTT12=
EXTT13=
EXTT14=
EXTT15=
EXTT16=
EXTT17=
EXTT18=
EXTT19=
PLAYORDER=
